<svg data-v-fde0c5aa="" xmlns="http://www.w3.org/2000/svg" viewBox="0 0 300 300" class="iconLeft"><!----><defs data-v-fde0c5aa=""><!----></defs><rect data-v-fde0c5aa="" fill="#FFFFFF" x="0" y="0" width="300px" height="300px" class="logo-background-square"></rect><defs data-v-fde0c5aa=""><!----></defs><g data-v-fde0c5aa="" id="21a9aecf-00ab-46ed-9981-52029696f7db" fill="#660303" transform="matrix(2.872627433892045,0,0,2.872627433892045,85.86133025164655,86.90273934600859)"><path d="M6.58 16.87Q8.02 16.87 9.13 17.56Q10.25 18.26 10.86 19.49Q11.47 20.72 11.47 22.27L11.47 22.27Q11.47 23.87 10.54 25.22Q9.60 26.57 8.22 27.36Q6.85 28.15 5.59 28.15L5.59 28.15Q4.94 28.15 4.28 28.08L4.28 28.08Q3.21 28.01 2.62 28.01L2.62 28.01L0.84 28.01L0.84 27.58L2.16 26.54L2.16 18.03L0.70 17.56L0.98 17.00L2.60 17.00Q3.93 17.00 5.19 16.91L5.19 16.91Q6.15 16.86 6.58 16.86L6.58 16.86L6.58 16.87ZM5.98 27.12Q6.99 27.12 7.81 26.58Q8.64 26.04 9.11 25.08Q9.58 24.12 9.58 22.93L9.58 22.93Q9.58 21.50 9.13 20.34Q8.68 19.17 7.76 18.47Q6.85 17.77 5.49 17.77L5.49 17.77Q4.63 17.77 3.91 18.27L3.91 18.27L3.91 26.77Q4.76 27.12 5.98 27.12L5.98 27.12ZM17.40 27.44L17.12 28L13.22 28L13.22 27.57L14.46 26.59L14.46 22.50L13.22 21.63L13.22 21.20L15.61 20.30L16.14 20.30L16.14 26.95L17.40 27.44ZM15.25 16.10Q15.67 16.10 15.94 16.41Q16.21 16.72 16.21 17.18L16.21 17.18Q16.21 17.50 16.02 17.79Q15.82 18.07 15.53 18.24Q15.23 18.41 14.95 18.41L14.95 18.41Q14.53 18.41 14.26 18.10Q13.99 17.79 13.99 17.33L13.99 17.33Q13.99 17.01 14.18 16.72Q14.38 16.44 14.67 16.27Q14.97 16.10 15.25 16.10L15.25 16.10ZM26.24 27.44L25.96 28L23.30 28L23.30 26.78L21.71 28.03Q21.43 28.14 21.01 28.14L21.01 28.14Q19.81 28.14 19.27 27.54Q18.73 26.94 18.73 26.10L18.73 26.10Q18.73 25.59 19.10 25.10Q19.46 24.61 20.13 24.18L20.13 24.18L23.30 24.18L23.30 23.28Q23.30 22.37 22.81 21.99Q22.33 21.62 21.49 21.62L21.49 21.62Q20.62 21.62 19.36 22.67L19.36 22.67L18.94 22.13L20.96 20.54Q21.52 20.43 22.30 20.43L22.30 20.43Q23.58 20.43 24.28 21.05Q24.98 21.67 24.98 22.86L24.98 22.86L24.98 26.95L26.24 27.44ZM21.46 26.95Q22.32 26.95 23.30 26.17L23.30 26.17L23.30 24.75L20.82 24.75Q20.64 24.98 20.56 25.20Q20.48 25.42 20.48 25.69L20.48 25.69Q20.48 26.21 20.75 26.58Q21.01 26.95 21.46 26.95L21.46 26.95ZM37.93 27.47L37.65 28.03L35.04 28.03L31.96 23.06L31.30 22.58L31.51 22.16L32.30 22.16Q33.25 22.16 33.80 21.68Q34.36 21.20 34.36 20.36L34.36 20.36Q34.36 19.25 33.74 18.52Q33.12 17.78 31.95 17.78L31.95 17.78Q31.16 17.78 30.51 18.24L30.51 18.24L30.51 26.96L31.98 27.47L31.70 28.03L27.44 28.03L27.44 27.59L28.76 26.56L28.76 18.05L27.30 17.57L27.58 17.01L29.20 17.01Q30.48 17.01 31.71 16.93L31.71 16.93Q32.61 16.87 33.04 16.87L33.04 16.87Q33.98 16.87 34.71 17.25Q35.45 17.63 35.85 18.27Q36.25 18.91 36.25 19.68L36.25 19.68Q36.25 20.38 35.81 21.02Q35.38 21.66 34.67 22.13Q33.96 22.60 33.18 22.83L33.18 22.83L34.09 23.14L36.26 26.64L37.93 27.47ZM42.87 27.44L42.59 28L38.68 28L38.68 27.57L39.93 26.59L39.93 22.50L38.68 21.63L38.68 21.20L41.08 20.30L41.61 20.30L41.61 26.95L42.87 27.44ZM40.71 16.10Q41.13 16.10 41.41 16.41Q41.68 16.72 41.68 17.18L41.68 17.18Q41.68 17.50 41.48 17.79Q41.29 18.07 40.99 18.24Q40.70 18.41 40.42 18.41L40.42 18.41Q40.00 18.41 39.73 18.10Q39.45 17.79 39.45 17.33L39.45 17.33Q39.45 17.01 39.65 16.72Q39.84 16.44 40.14 16.27Q40.43 16.10 40.71 16.10L40.71 16.10ZM48.64 26.49Q48.64 26.10 48.20 25.77Q47.77 25.44 46.87 24.98L46.87 24.98Q46.14 24.60 45.70 24.32Q45.25 24.04 44.93 23.67Q44.62 23.30 44.62 22.86L44.62 22.86Q44.62 22.36 45.04 21.78Q45.46 21.21 46.07 20.82Q46.69 20.43 47.22 20.43L47.22 20.43Q47.87 20.43 48.71 20.59Q49.56 20.75 49.94 20.94L49.94 20.94L49.94 23.10L49.41 23.10Q48.96 22.23 48.37 21.75Q47.78 21.27 47.17 21.27L47.17 21.27Q46.73 21.27 46.47 21.50Q46.20 21.73 46.20 22.08L46.20 22.08Q46.20 22.51 46.65 22.86Q47.11 23.20 48.03 23.66L48.03 23.66Q48.75 24.02 49.18 24.29Q49.62 24.56 49.92 24.91Q50.22 25.27 50.22 25.70L50.22 25.70Q50.22 26.22 49.78 26.79Q49.34 27.36 48.70 27.75Q48.06 28.14 47.53 28.14L47.53 28.14Q46.84 28.14 45.90 27.98Q44.95 27.82 44.55 27.62L44.55 27.62L44.55 25.47L45.08 25.47Q45.57 26.33 46.24 26.82Q46.91 27.30 47.60 27.30L47.60 27.30Q48.06 27.30 48.35 27.06Q48.64 26.82 48.64 26.49L48.64 26.49ZM54.60 26.95L55.86 27.44L55.58 28L51.67 28L51.67 27.57L52.92 26.59L52.92 17.98L51.67 17.11L51.67 16.67L54.07 15.78L54.60 15.78L54.60 26.95ZM60.62 27.44L60.34 28L57.97 28L55.34 24.30L57.96 22.11L56.62 21.13L56.90 20.57L60.24 20.57L60.24 21L56.99 23.73L59.36 26.95L60.62 27.44Z"></path></g><defs data-v-fde0c5aa=""><!----></defs><g data-v-fde0c5aa="" id="5598df3b-3e75-4b8c-9710-8989d8474690" stroke="none" fill="#BB1919" transform="matrix(0.11104556096090144,0,0,0.11104556096090144,27.78498829430084,121.57247025325172)"><path d="M298 396v7a32 32 0 01-32 32h-2v52.73a8.18 8.18 0 01-7.47 8.25 8 8 0 01-8.53-8V435h-2a32 32 0 01-32-32v-7a8 8 0 018-8h68a8 8 0 018 8zm-26-122h-32a16 16 0 000 32h32a16 16 0 000-32zm34.33-44.42a73 73 0 0085 28.24 8 8 0 0110.7 7.53V332a40 40 0 01-40 40H150a40 40 0 01-40-40V56a40 40 0 0140-40h212a40 40 0 0140 40v39.21a8 8 0 01-11.94 7 46.22 46.22 0 00-22.17-6.11 8 8 0 01-7.89-8c0-20.23-15.41-33.1-32-33.1H184a32 32 0 00-32 32v107a32 32 0 0032 32h115.75a7.94 7.94 0 016.58 3.58zM304 290a32 32 0 00-32-32h-32a32 32 0 000 64h32a32 32 0 0032-32zm109.82-133.45L392 125.14a30.49 30.49 0 00-50.08 0l-21.78 31.41C293.93 194.39 321.21 246 367 246s73-51.67 46.82-89.45z" data-name="23. Diabetes"></path></g><!----></svg>